<svg width="77" height="36" viewBox="0 0 77 36" fill="none" xmlns="http://www.w3.org/2000/svg">
<path d="M0 7.5H18" stroke="gray"/>
<path d="M0 8.5H18" stroke="gray"/>
<path d="M0 9.5H18" stroke="gray"/>
<line x1="7.5" y1="2" x2="7.5" y2="26" stroke="gray"/>
<line x1="9.5" y1="2" x2="9.5" y2="26" stroke="gray"/>
<line x1="8.5" y1="2" x2="8.5" y2="26" stroke="gray"/>
<line x1="4" y1="26.5" x2="13" y2="26.5" stroke="gray"/>
<path d="M17.7735 26.216C16.7655 26.216 15.8615 26.048 15.0615 25.712C14.2615 25.36 13.6295 24.88 13.1655 24.272C12.7015 23.648 12.4455 22.936 12.3975 22.136H14.6535C14.7175 22.792 15.0215 23.328 15.5655 23.744C16.1255 24.16 16.8535 24.368 17.7495 24.368C18.5815 24.368 19.2375 24.184 19.7175 23.816C20.1975 23.448 20.4375 22.984 20.4375 22.424C20.4375 21.848 20.1815 21.424 19.6695 21.152C19.1575 20.864 18.3655 20.584 17.2935 20.312C16.3175 20.056 15.5175 19.8 14.8935 19.544C14.2855 19.272 13.7575 18.88 13.3095 18.368C12.8775 17.84 12.6615 17.152 12.6615 16.304C12.6615 15.632 12.8615 15.016 13.2615 14.456C13.6615 13.896 14.2295 13.456 14.9655 13.136C15.7015 12.8 16.5415 12.632 17.4855 12.632C18.9415 12.632 20.1175 13 21.0135 13.736C21.9095 14.472 22.3895 15.48 22.4535 16.76H20.2695C20.2215 16.072 19.9415 15.52 19.4295 15.104C18.9335 14.688 18.2615 14.48 17.4135 14.48C16.6295 14.48 16.0055 14.648 15.5415 14.984C15.0775 15.32 14.8455 15.76 14.8455 16.304C14.8455 16.736 14.9815 17.096 15.2535 17.384C15.5415 17.656 15.8935 17.88 16.3095 18.056C16.7415 18.216 17.3335 18.4 18.0855 18.608C19.0295 18.864 19.7975 19.12 20.3895 19.376C20.9815 19.616 21.4855 19.984 21.9015 20.48C22.3335 20.976 22.5575 21.624 22.5735 22.424C22.5735 23.144 22.3735 23.792 21.9735 24.368C21.5735 24.944 21.0055 25.4 20.2695 25.736C19.5495 26.056 18.7175 26.216 17.7735 26.216ZM24.8406 19.4C24.8406 18.04 25.1126 16.856 25.6566 15.848C26.2006 14.824 26.9526 14.032 27.9126 13.472C28.8886 12.912 30.0006 12.632 31.2486 12.632C32.8646 12.632 34.1926 13.024 35.2326 13.808C36.2886 14.592 36.9846 15.68 37.3206 17.072H34.9686C34.7446 16.272 34.3046 15.64 33.6486 15.176C33.0086 14.712 32.2086 14.48 31.2486 14.48C30.0006 14.48 28.9926 14.912 28.2246 15.776C27.4566 16.624 27.0726 17.832 27.0726 19.4C27.0726 20.984 27.4566 22.208 28.2246 23.072C28.9926 23.936 30.0006 24.368 31.2486 24.368C32.2086 24.368 33.0086 24.144 33.6486 23.696C34.2886 23.248 34.7286 22.608 34.9686 21.776H37.3206C36.9686 23.12 36.2646 24.2 35.2086 25.016C34.1526 25.816 32.8326 26.216 31.2486 26.216C30.0006 26.216 28.8886 25.936 27.9126 25.376C26.9526 24.816 26.2006 24.024 25.6566 23C25.1126 21.976 24.8406 20.776 24.8406 19.4ZM39.4187 19.376C39.4187 18.032 39.6907 16.856 40.2347 15.848C40.7787 14.824 41.5227 14.032 42.4667 13.472C43.4267 12.912 44.4907 12.632 45.6587 12.632C46.8107 12.632 47.8107 12.88 48.6587 13.376C49.5067 13.872 50.1387 14.496 50.5547 15.248V12.848H52.7627V26H50.5547V23.552C50.1227 24.32 49.4747 24.96 48.6107 25.472C47.7627 25.968 46.7707 26.216 45.6347 26.216C44.4667 26.216 43.4107 25.928 42.4667 25.352C41.5227 24.776 40.7787 23.968 40.2347 22.928C39.6907 21.888 39.4187 20.704 39.4187 19.376ZM50.5547 19.4C50.5547 18.408 50.3547 17.544 49.9547 16.808C49.5547 16.072 49.0107 15.512 48.3227 15.128C47.6507 14.728 46.9067 14.528 46.0907 14.528C45.2747 14.528 44.5307 14.72 43.8587 15.104C43.1867 15.488 42.6507 16.048 42.2507 16.784C41.8507 17.52 41.6507 18.384 41.6507 19.376C41.6507 20.384 41.8507 21.264 42.2507 22.016C42.6507 22.752 43.1867 23.32 43.8587 23.72C44.5307 24.104 45.2747 24.296 46.0907 24.296C46.9067 24.296 47.6507 24.104 48.3227 23.72C49.0107 23.32 49.5547 22.752 49.9547 22.016C50.3547 21.264 50.5547 20.392 50.5547 19.4ZM58.6375 8.24V26H56.4535V8.24H58.6375ZM61.5437 19.376C61.5437 18.032 61.8157 16.856 62.3597 15.848C62.9037 14.824 63.6477 14.032 64.5917 13.472C65.5517 12.912 66.6157 12.632 67.7837 12.632C68.9357 12.632 69.9357 12.88 70.7837 13.376C71.6317 13.872 72.2637 14.496 72.6797 15.248V12.848H74.8877V26H72.6797V23.552C72.2477 24.32 71.5997 24.96 70.7357 25.472C69.8877 25.968 68.8957 26.216 67.7597 26.216C66.5917 26.216 65.5357 25.928 64.5917 25.352C63.6477 24.776 62.9037 23.968 62.3597 22.928C61.8157 21.888 61.5437 20.704 61.5437 19.376ZM72.6797 19.4C72.6797 18.408 72.4797 17.544 72.0797 16.808C71.6797 16.072 71.1357 15.512 70.4477 15.128C69.7757 14.728 69.0317 14.528 68.2157 14.528C67.3997 14.528 66.6557 14.72 65.9837 15.104C65.3117 15.488 64.7757 16.048 64.3757 16.784C63.9757 17.52 63.7757 18.384 63.7757 19.376C63.7757 20.384 63.9757 21.264 64.3757 22.016C64.7757 22.752 65.3117 23.32 65.9837 23.72C66.6557 24.104 67.3997 24.296 68.2157 24.296C69.0317 24.296 69.7757 24.104 70.4477 23.72C71.1357 23.32 71.6797 22.752 72.0797 22.016C72.4797 21.264 72.6797 20.392 72.6797 19.4Z" fill="black"/>
</svg>
